# xmcd
#
# Track frame offsets: 
#        150
#        14432
#        27230
#        40536
#        53989
#        67221
#        80939
#        94737
#        107715
#        121080
#        134010
#        148397
#        163277
#        174160
#        186107
#        199937
#        211340
#        223275
#        237518
#        251797
#        266354
#        278889
#        293974
#
# Disc length: 4102 seconds
#
# Revision: 2
# Processed by: cddbd v1.5.2PL0 Copyright (c) Steve Scherf et al.
# Submitted via: ExactAudioCopyFreeDBPlugin 1.0
#
DISCID=72100417
DTITLE=Verschiedene - Milestones Of Legends - Delta Blues - CD01 - Blu
DTITLE=es Giants
DYEAR=2018
DGENRE=Blues
TTITLE0=Charlie Patton - High Sheriff Blues
TTITLE1=Son House - Mississippi Country Blues
TTITLE2=Son House - Clarksdale Moan
TTITLE3=Blind Willie Johnson - God Don't Never Change
TTITLE4=Lead Belly - Packin' Trunk Blues
TTITLE5=Casey Bill Weldon - I Believe I'll Make a Change
TTITLE6=Blind Willie Johnson - When the War Was On
TTITLE7=Blind Lemon Jefferson - Black Snake Moan
TTITLE8=Joshua White - The Prodigal Son
TTITLE9=Lonnie Johnson - Away Down in the Ally Blues
TTITLE10=Son House - My Black Mama Part One
TTITLE11=Son House - My Black Mama Part Two
TTITLE12=Sonny Terry - Touch It up and Go
TTITLE13=Mississippie Jock Band - Hittin' the Botton Stomp
TTITLE14=Big Joe Williams - Somebody's Been Borrowing That Stuff
TTITLE15=Big Joe Williams - Greystone Blues
TTITLE16=Bukka White - Bukka's Jitterbig Swing
TTITLE17=Blind Boy Fuller - Homesick and Lonesme Blues
TTITLE18=Son House - Dry Spell Blues Part I
TTITLE19=Son House - Dry Spell Blues Part II
TTITLE20=Blind Willie McTell - Broke Down Engine
TTITLE21=Mississippie Fred McDowell - Shake 'Em Down
TTITLE22=John Lee Hooker - My Baby Don't Love Me
EXTD=
EXTT0=
EXTT1=
EXTT2=
EXTT3=
EXTT4=
EXTT5=
EXTT6=
EXTT7=
EXTT8=
EXTT9=
EXTT10=
EXTT11=
EXTT12=
EXTT13=
EXTT14=
EXTT15=
EXTT16=
EXTT17=
EXTT18=
EXTT19=
EXTT20=
EXTT21=
EXTT22=
PLAYORDER=
